<svg version="1.1" id="Layer_1" xmlns="http://www.w3.org/2000/svg" xmlns:xlink="http://www.w3.org/1999/xlink" x="0px" y="0px"
	 width="100%" viewBox="0 0 512 512" enable-background="new 0 0 512 512" xml:space="preserve">
<path fill="#FFFFFF" opacity="1.000000" stroke="none" 
	d="
M513.000000,318.000000 
	C513.000000,382.964752 513.000000,447.929535 513.000000,512.941772 
	C342.333344,512.941772 171.666672,512.941772 1.000000,512.941772 
	C1.000000,481.900360 1.000000,450.917145 1.468657,419.467834 
	C17.434969,419.001678 32.943901,418.657867 48.424896,419.165680 
	C54.896336,419.377960 58.461292,417.603088 62.025177,411.839508 
	C74.774689,391.220734 88.365990,371.121490 101.686958,350.857330 
	C122.394539,319.356506 143.147644,287.885651 163.869568,256.394257 
	C176.917633,236.564926 189.944016,216.721313 203.003281,196.848877 
	C193.932327,182.779083 184.937683,168.827621 175.801697,154.656937 
	C174.283127,157.021027 173.247696,158.686218 172.160934,160.317215 
	C121.697220,236.053452 71.248253,311.799530 20.737410,387.504303 
	C14.325476,397.114410 7.587132,406.506775 0.999999,416.000000 
	C1.000000,277.715027 1.000000,139.430084 1.000000,1.072563 
	C171.558594,1.072563 342.117218,1.072563 513.000000,1.072563 
	C513.000000,105.355125 513.000000,209.710587 512.531372,314.532349 
	C434.447113,314.998566 356.831573,314.998535 279.216003,314.998474 
	C262.726868,314.998444 246.236145,315.117493 229.749817,314.901337 
	C226.315872,314.856293 224.343567,316.015076 222.620956,318.776031 
	C217.267365,327.356689 211.695206,335.800659 206.307922,344.360657 
	C203.178925,349.332428 200.241867,354.424988 196.896317,360.000000 
	C199.810150,360.000000 201.639847,360.000000 203.469559,360.000000 
	C295.075958,360.000000 386.682556,359.926666 478.288239,360.179016 
	C483.886078,360.194427 487.007812,358.342621 489.552277,353.940765 
	C491.995270,349.714386 494.567017,345.554565 497.253357,341.478333 
	C502.438538,333.610199 507.744263,325.821594 513.000000,318.000000 
M192.500000,95.000076 
	C182.419434,95.000076 172.338882,95.000076 161.677170,95.000076 
	C162.504837,96.792236 162.916122,98.012474 163.582413,99.072418 
	C168.148956,106.336983 172.730789,113.592545 177.378250,120.805534 
	C198.594864,153.734314 219.865692,186.628159 241.055603,219.574097 
	C255.847794,242.572906 270.615295,265.588348 285.247437,288.689087 
	C292.988373,300.910217 292.847229,300.999634 307.363861,300.999634 
	C309.529144,300.999634 311.694427,300.999634 313.859711,300.999634 
	C325.739441,300.999634 337.619171,300.999634 350.014801,300.999634 
	C306.889130,231.991333 264.140228,163.585892 221.278595,95.000076 
	C212.145523,95.000076 202.822754,95.000076 192.500000,95.000076 
M402.010345,407.487030 
	C409.080780,396.615082 416.151215,385.743103 423.613556,374.268555 
	C421.395142,374.143524 420.117218,374.008636 418.839294,374.008484 
	C343.021576,373.998444 267.203827,374.020081 191.386230,373.919769 
	C188.542282,373.916016 186.857605,374.862885 185.443207,377.083984 
	C177.210999,390.011414 168.928619,402.906952 160.715179,415.846252 
	C160.250336,416.578583 160.246002,417.603210 159.902267,419.000000 
	C162.288727,419.000000 164.252151,419.000000 166.215561,419.000000 
	C238.367386,419.000000 310.520386,418.806152 382.669464,419.251190 
	C391.455536,419.305389 397.388306,417.432678 400.904419,409.371429 
	C401.100830,408.921112 401.307739,408.475403 402.010345,407.487030 
M264.049103,129.366959 
	C269.695251,138.224152 275.409302,147.038910 280.974213,155.946869 
	C295.042114,178.465881 309.040894,201.028046 323.071320,223.570450 
	C331.695190,237.426331 340.312225,251.286499 348.958771,265.128235 
	C355.882660,276.212250 362.805634,287.297455 369.852051,298.303375 
	C370.600616,299.472595 372.168976,300.873413 373.368469,300.884094 
	C391.759155,301.047699 410.151703,300.998077 428.870667,300.998077 
	C411.707947,273.948669 394.833862,247.355896 377.961609,220.761978 
	C365.307007,200.815857 352.655914,180.867538 340.001129,160.921524 
	C331.336700,147.264923 322.753632,133.554871 313.885986,120.031471 
	C312.870972,118.483528 310.272095,117.170586 308.379333,117.131874 
	C295.891418,116.876518 283.395752,116.999969 270.902618,116.999954 
	C266.325928,116.999947 261.749268,116.999947 256.357971,116.999947 
	C259.234894,121.415039 261.584961,125.021637 264.049103,129.366959 
M178.490387,270.956360 
	C170.111801,283.673462 161.765701,296.412109 153.348053,309.103302 
	C134.217056,337.947083 115.049637,366.766724 95.899864,395.598083 
	C90.885925,403.146881 85.882347,410.702515 80.381157,418.998260 
	C98.741020,418.998260 116.037720,419.063629 133.331573,418.872040 
	C134.689514,418.856995 136.476257,417.337891 137.308029,416.035248 
	C151.066589,394.487305 164.609268,372.801361 178.391113,351.268463 
	C198.272217,320.206055 218.344574,289.265930 238.162689,258.163666 
	C239.119476,256.662109 239.183472,253.697098 238.343765,252.113007 
	C235.817047,247.346344 232.646484,242.919922 229.710342,238.371597 
	C224.868866,230.871765 220.014252,223.380402 214.882935,215.449188 
	C202.607880,234.171204 190.750336,252.256424 178.490387,270.956360 
z"/>
<path fill="#829CA8" opacity="1.000000" stroke="none" 
	d="
M0.999999,416.375000 
	C7.587132,406.506775 14.325476,397.114410 20.737410,387.504303 
	C71.248253,311.799530 121.697220,236.053452 172.160934,160.317215 
	C173.247696,158.686218 174.283127,157.021027 175.801697,154.656937 
	C184.937683,168.827621 193.932327,182.779083 203.003281,196.848877 
	C189.944016,216.721313 176.917633,236.564926 163.869568,256.394257 
	C143.147644,287.885651 122.394539,319.356506 101.686958,350.857330 
	C88.365990,371.121490 74.774689,391.220734 62.025177,411.839508 
	C58.461292,417.603088 54.896336,419.377960 48.424896,419.165680 
	C32.943901,418.657867 17.434969,419.001678 1.468657,419.000854 
	C1.000000,418.250000 1.000000,417.500000 0.999999,416.375000 
z"/>
<path fill="#4C99AB" opacity="1.000000" stroke="none" 
	d="
M513.000000,317.625000 
	C507.744263,325.821594 502.438538,333.610199 497.253357,341.478333 
	C494.567017,345.554565 491.995270,349.714386 489.552277,353.940765 
	C487.007812,358.342621 483.886078,360.194427 478.288239,360.179016 
	C386.682556,359.926666 295.075958,360.000000 203.469559,360.000000 
	C201.639847,360.000000 199.810150,360.000000 196.896317,360.000000 
	C200.241867,354.424988 203.178925,349.332428 206.307922,344.360657 
	C211.695206,335.800659 217.267365,327.356689 222.620956,318.776031 
	C224.343567,316.015076 226.315872,314.856293 229.749817,314.901337 
	C246.236145,315.117493 262.726868,314.998444 279.216003,314.998474 
	C356.831573,314.998535 434.447113,314.998566 512.531372,314.999329 
	C513.000000,315.750000 513.000000,316.500000 513.000000,317.625000 
z"/>
<path fill="#26617D" opacity="1.000000" stroke="none" 
	d="
M193.000000,95.000076 
	C202.822754,95.000076 212.145523,95.000076 221.278595,95.000076 
	C264.140228,163.585892 306.889130,231.991333 350.014801,300.999634 
	C337.619171,300.999634 325.739441,300.999634 313.859711,300.999634 
	C311.694427,300.999634 309.529144,300.999634 307.363861,300.999634 
	C292.847229,300.999634 292.988373,300.910217 285.247437,288.689087 
	C270.615295,265.588348 255.847794,242.572906 241.055603,219.574097 
	C219.865692,186.628159 198.594864,153.734314 177.378250,120.805534 
	C172.730789,113.592545 168.148956,106.336983 163.582413,99.072418 
	C162.916122,98.012474 162.504837,96.792236 161.677170,95.000076 
	C172.338882,95.000076 182.419434,95.000076 193.000000,95.000076 
z"/>
<path fill="#4C99AB" opacity="1.000000" stroke="none" 
	d="
M401.760040,407.757294 
	C401.307739,408.475403 401.100830,408.921112 400.904419,409.371429 
	C397.388306,417.432678 391.455536,419.305389 382.669464,419.251190 
	C310.520386,418.806152 238.367386,419.000000 166.215561,419.000000 
	C164.252151,419.000000 162.288727,419.000000 159.902267,419.000000 
	C160.246002,417.603210 160.250336,416.578583 160.715179,415.846252 
	C168.928619,402.906952 177.210999,390.011414 185.443207,377.083984 
	C186.857605,374.862885 188.542282,373.916016 191.386230,373.919769 
	C267.203827,374.020081 343.021576,373.998444 418.839294,374.008484 
	C420.117218,374.008636 421.395142,374.143524 423.613556,374.268555 
	C416.151215,385.743103 409.080780,396.615082 401.760040,407.757294 
z"/>
<path fill="#26617D" opacity="1.000000" stroke="none" 
	d="
M263.992065,128.997589 
	C261.584961,125.021637 259.234894,121.415039 256.357971,116.999947 
	C261.749268,116.999947 266.325928,116.999947 270.902618,116.999954 
	C283.395752,116.999969 295.891418,116.876518 308.379333,117.131874 
	C310.272095,117.170586 312.870972,118.483528 313.885986,120.031471 
	C322.753632,133.554871 331.336700,147.264923 340.001129,160.921524 
	C352.655914,180.867538 365.307007,200.815857 377.961609,220.761978 
	C394.833862,247.355896 411.707947,273.948669 428.870667,300.998077 
	C410.151703,300.998077 391.759155,301.047699 373.368469,300.884094 
	C372.168976,300.873413 370.600616,299.472595 369.852051,298.303375 
	C362.805634,287.297455 355.882660,276.212250 348.958771,265.128235 
	C340.312225,251.286499 331.695190,237.426331 323.071320,223.570450 
	C309.040894,201.028046 295.042114,178.465881 280.974213,155.946869 
	C275.409302,147.038910 269.695251,138.224152 263.992065,128.997589 
z"/>
<path fill="#829CA8" opacity="1.000000" stroke="none" 
	d="
M178.691589,270.648987 
	C190.750336,252.256424 202.607880,234.171204 214.882935,215.449188 
	C220.014252,223.380402 224.868866,230.871765 229.710342,238.371597 
	C232.646484,242.919922 235.817047,247.346344 238.343765,252.113007 
	C239.183472,253.697098 239.119476,256.662109 238.162689,258.163666 
	C218.344574,289.265930 198.272217,320.206055 178.391113,351.268463 
	C164.609268,372.801361 151.066589,394.487305 137.308029,416.035248 
	C136.476257,417.337891 134.689514,418.856995 133.331573,418.872040 
	C116.037720,419.063629 98.741020,418.998260 80.381157,418.998260 
	C85.882347,410.702515 90.885925,403.146881 95.899864,395.598083 
	C115.049637,366.766724 134.217056,337.947083 153.348053,309.103302 
	C161.765701,296.412109 170.111801,283.673462 178.691589,270.648987 
z"/>
</svg>